<?xml version="1.0" encoding="utf-8"?>
<!-- Generator: Adobe Illustrator 27.9.1, SVG Export Plug-In . SVG Version: 6.00 Build 0)  -->
<svg version="1.1" id="Layer_1" xmlns="http://www.w3.org/2000/svg" xmlns:xlink="http://www.w3.org/1999/xlink" x="0px" y="0px"
	 viewBox="0 0 955.95 955.95" style="enable-background:new 0 0 955.95 955.95;" xml:space="preserve">
<style type="text/css">
	.st0{fill:#FFFFFF;}
</style>
<g>
	<path class="st0" d="M112.8,955.95c-37.6,0-75.2,0-112.8,0C0,637.3,0,318.65,0,0c318.65,0,637.3,0,955.95,0
		c0,318.65,0,637.3,0,955.95c-100.06,0-200.11,0-300.17,0c-0.01-13.91,0.12-27.82-0.05-41.73c-0.2-15.79-4.46-30.16-14-43.13
		c-8.79-11.95-19.99-20.86-32.66-27.9c-11.49-6.38-23.5-11.83-35.4-17.45c-20.83-9.84-41.71-19.55-61.73-31
		c-3.77-2.16-7.54-4.36-11.09-6.86c-5.72-4.04-11.26-8.33-16.84-12.56c-0.92-0.69-1.79-1.5-2.5-2.4c-3.07-3.93-5.98-7.99-9.13-11.86
		c-2.13-2.63-3.37-5.62-4.31-8.79c-0.22-0.74-0.14-1.56-0.23-2.79c2.05,0,3.73-0.03,5.41,0.01c14.9,0.35,29.7-0.79,44.39-3.26
		c20.34-3.41,39.91-9.22,58.14-19.06c14.76-7.97,27.46-18.4,37.84-31.64c11.85-15.11,19.56-32.24,24.94-50.52
		c4.72-16.05,7.3-32.49,8.98-49.1c1.83-18.19,2.22-36.44,2.47-54.7c0.22-16.35,0.12-32.71,0.07-49.06
		c-0.14-41.73-0.31-83.46-0.52-125.19c-0.1-19.67-1.52-39.25-4.58-58.68c-2.9-18.43-7.55-36.36-15.36-53.38
		c-8.38-18.25-20.04-33.98-35.89-46.43c-13.08-10.28-27.82-17.5-43.51-22.82c-20.77-7.03-42.19-10.52-64.05-11.35
		c-22.41-0.84-44.54,1.32-66.31,6.78c-13.63,3.42-26.82,8.1-39.3,14.63c-17.13,8.95-31.54,21.05-42.82,36.83
		c-10.44,14.61-17.44,30.8-22.29,47.99c-5.33,18.88-8,38.2-9.41,57.72c-1.12,15.36-1.45,30.75-1.46,46.15
		c-0.01,8.5,0.06,16.99-0.09,25.49c-0.13,7.72-2.69,11.18-9.88,13.86c-3.58,1.34-7.21,2.54-10.77,3.91
		c-2.99,1.15-5.67,2.83-8.02,5.07c-5.85,5.59-10.08,12.29-13.49,19.54c-0.65,1.39-0.89,3.06-0.95,4.62
		c-0.16,4.88-0.19,9.76-0.17,14.65c0.01,1.57,0.01,3.26,0.54,4.7c3.01,8.26,7.19,15.89,13.51,22.09c4.88,4.79,10.77,7.47,17.78,7.25
		c1.16-0.04,2.33,0.03,3.49,0.15c3.73,0.36,6.09,2.52,6.93,6.04c0.64,2.66,0.99,5.44,1.03,8.17c0.21,15.18,0.15,30.37,0.46,45.55
		c0.16,7.85,0.9,15.68,1.41,23.52c0.43,6.67,1.27,13.33,1.28,20c0.03,31.11-0.08,62.22-0.31,93.34
		c-0.08,10.71-0.29,21.45-2.16,32.06c-0.51,2.92-0.87,5.89-1.7,8.72c-1.16,3.97-2.73,7.81-4.04,11.74
		c-0.85,2.55-2.11,4.82-3.81,6.92c-3.01,3.71-5.86,7.55-8.79,11.32c-0.58,0.75-1.13,1.59-1.88,2.15
		c-7.43,5.49-14.59,11.41-22.43,16.25c-9.38,5.79-19.16,11.01-29.08,15.84c-17.17,8.37-34.58,16.27-51.9,24.34
		c-10.3,4.8-20.59,9.62-30.01,16.05c-7.11,4.85-14.19,9.78-19.68,16.53c-2.48,3.04-4.69,6.3-7.07,9.42
		c-7.69,10.11-10.96,21.93-11.57,34.21C112.4,923.85,112.87,939.91,112.8,955.95z"/>
	<path d="M112.8,955.95c0.07-16.03-0.4-32.09,0.39-48.09c0.61-12.27,3.88-24.1,11.57-34.21c2.38-3.13,4.59-6.38,7.07-9.42
		c5.5-6.76,12.58-11.68,19.68-16.53c9.42-6.43,19.71-11.25,30.01-16.05c17.32-8.07,34.72-15.97,51.9-24.34
		c9.92-4.83,19.7-10.04,29.08-15.84c7.83-4.84,15-10.76,22.43-16.25c0.75-0.55,1.29-1.4,1.88-2.15c2.93-3.77,5.78-7.61,8.79-11.32
		c1.7-2.1,2.96-4.36,3.81-6.92c1.31-3.93,2.88-7.77,4.04-11.74c0.83-2.83,1.19-5.8,1.7-8.72c1.87-10.61,2.08-21.34,2.16-32.06
		c0.23-31.11,0.35-62.22,0.31-93.34c-0.01-6.67-0.85-13.33-1.28-20c-0.5-7.84-1.24-15.67-1.41-23.52
		c-0.31-15.18-0.25-30.37-0.46-45.55c-0.04-2.73-0.39-5.52-1.03-8.17c-0.84-3.51-3.2-5.68-6.93-6.04c-1.16-0.11-2.33-0.18-3.49-0.15
		c-7.01,0.22-12.9-2.47-17.78-7.25c-6.32-6.21-10.5-13.83-13.51-22.09c-0.53-1.44-0.53-3.13-0.54-4.7
		c-0.02-4.88,0.01-9.77,0.17-14.65c0.05-1.56,0.29-3.23,0.95-4.62c3.4-7.25,7.64-13.95,13.49-19.54c2.35-2.24,5.03-3.92,8.02-5.07
		c3.56-1.37,7.19-2.58,10.77-3.91c7.19-2.68,9.75-6.14,9.88-13.86c0.15-8.49,0.08-16.99,0.09-25.49c0.01-15.4,0.34-30.78,1.46-46.15
		c1.42-19.52,4.08-38.85,9.41-57.72c4.85-17.19,11.85-33.38,22.29-47.99c11.28-15.78,25.69-27.88,42.82-36.83
		c12.49-6.53,25.67-11.21,39.3-14.63c21.77-5.47,43.9-7.63,66.31-6.78c21.86,0.82,43.28,4.32,64.05,11.35
		c15.7,5.31,30.43,12.54,43.51,22.82c15.85,12.45,27.51,28.18,35.89,46.43c7.81,17.02,12.45,34.96,15.36,53.38
		c3.06,19.44,4.48,39.02,4.58,58.68c0.21,41.73,0.38,83.46,0.52,125.19c0.05,16.35,0.15,32.71-0.07,49.06
		c-0.25,18.25-0.64,36.51-2.47,54.7c-1.67,16.61-4.25,33.05-8.98,49.1c-5.38,18.28-13.09,35.42-24.94,50.52
		c-10.38,13.23-23.09,23.67-37.84,31.64c-18.23,9.84-37.79,15.64-58.14,19.06c-14.7,2.47-29.49,3.61-44.39,3.26
		c-1.68-0.04-3.36-0.01-5.41-0.01c0.09,1.23,0.02,2.05,0.23,2.79c0.94,3.17,2.18,6.16,4.31,8.79c3.14,3.87,6.06,7.93,9.13,11.86
		c0.71,0.9,1.58,1.71,2.5,2.4c5.59,4.23,11.13,8.52,16.84,12.56c3.54,2.5,7.32,4.7,11.09,6.86c20.02,11.45,40.9,21.16,61.73,31
		c11.9,5.62,23.91,11.07,35.4,17.45c12.67,7.04,23.87,15.95,32.66,27.9c9.54,12.97,13.81,27.34,14,43.13
		c0.17,13.91,0.05,27.82,0.05,41.73C474.79,955.95,293.79,955.95,112.8,955.95z"/>
</g>
</svg>
